# xmcd
#
# Track frame offsets:
# 150
# 24180
# 40945
# 53953
# 68802
# 81782
# 102284
# 109827
# 120695
# 136925
# 149768
# 165799
# 190577
# 210085
#
# Disc length: 3051 seconds
#
#
# Revision: 0
# Processed by: cddbd v1.5.2PL0 Copyright (c) Steve Scherf et al.
# Submitted via: FreeRIP 2.945 
#
DISCID=b40be90e
DTITLE=Bill Anderson - Live From London
DYEAR=1900
DGENRE=Country
TTITLE0=Don't She Look Good
TTITLE1=Poor Sweet Baby
TTITLE2=World Of Make Believe
TTITLE3=Po' Folks
TTITLE4=Birthday Tribute To Grand Ole Opry
TTITLE5=I Love You Drops
TTITLE6=Heavenly Sunshine
TTITLE7=I Get The Fever
TTITLE8=City Lights
TTITLE9=Jessica
TTITLE10=Tomorrow
TTITLE11=Golden Guitar
TTITLE12=I Still Miss Someone
TTITLE13=The World Needs A Melody
EXTD=
EXTT0=
EXTT1=
EXTT2=
EXTT3=
EXTT4=
EXTT5=
EXTT6=
EXTT7=
EXTT8=
EXTT9=
EXTT10=
EXTT11=
EXTT12=
EXTT13=
PLAYORDER=
